<svg width="340" height="340" viewBox="0 0 340 340" fill="none" xmlns="http://www.w3.org/2000/svg">
<path d="M153.17 252C140.63 252 130.84 249.47 123.8 244.41C116.833 239.35 112.47 231.54 110.71 220.98C110.417 217.753 111.077 215.333 112.69 213.72C114.303 212.107 116.65 211.3 119.73 211.3C122.81 211.3 125.047 212.033 126.44 213.5C127.907 214.967 128.897 217.24 129.41 220.32C130.51 225.38 132.857 228.863 136.45 230.77C140.117 232.603 145.69 233.52 153.17 233.52H184.85C194.31 233.52 200.727 231.833 204.1 228.46C207.547 225.013 209.27 218.633 209.27 209.32C209.27 199.86 207.51 193.407 203.99 189.96C200.47 186.44 194.09 184.68 184.85 184.68H157.57C143.71 184.68 133.407 181.307 126.66 174.56C119.987 167.74 116.65 157.4 116.65 143.54C116.65 129.753 119.95 119.523 126.55 112.85C133.223 106.177 143.49 102.84 157.35 102.84H183.53C195.19 102.84 204.32 105.223 210.92 109.99C217.593 114.757 221.81 122.053 223.57 131.88C224.01 135.033 223.423 137.453 221.81 139.14C220.197 140.753 217.777 141.56 214.55 141.56C211.617 141.56 209.417 140.79 207.95 139.25C206.483 137.71 205.53 135.473 205.09 132.54C203.917 128.213 201.68 125.28 198.38 123.74C195.08 122.127 190.13 121.32 183.53 121.32H157.35C148.55 121.32 142.647 122.897 139.64 126.05C136.633 129.13 135.13 134.96 135.13 143.54C135.13 152.193 136.67 158.133 139.75 161.36C142.83 164.587 148.77 166.2 157.57 166.2H184.85C199.297 166.2 210.04 169.72 217.08 176.76C224.193 183.8 227.75 194.653 227.75 209.32C227.75 223.913 224.23 234.693 217.19 241.66C210.15 248.553 199.37 252 184.85 252H153.17Z" fill="black"/>
<path d="M31.2757 89.9075L170 9.81495L308.724 89.9075V250.093L170 330.185L31.2757 250.093V89.9075Z" stroke="black" stroke-width="17"/>
</svg>
